<svg width="204" height="204" viewBox="0 0 204 204" fill="none" xmlns="http://www.w3.org/2000/svg">
<path d="M39.8185 183.818L20.1822 164.182L34.9094 146.182L57.8185 169.091L39.8185 183.818Z" fill="#DCDCD1"/>
<path d="M20.1816 39.8184L39.818 20.182L57.818 34.9093L34.9089 57.8184L20.1816 39.8184Z" fill="#DCDCD1"/>
<path d="M183.818 164.182L164.182 183.818L146.182 169.091L169.091 146.182L183.818 164.182Z" fill="#DCDCD1"/>
<path d="M164.182 20.1821L183.819 39.8184L169.091 57.8184L146.182 34.9093L164.182 20.1821Z" fill="#DCDCD1"/>
<path d="M0.176514 115.885V88.1152L23.3182 85.801L23.3182 118.199L0.176514 115.885Z" fill="#DCDCD1"/>
<path d="M88.1148 0.177002L115.885 0.177003L118.199 23.3187H85.8007L88.1148 0.177002Z" fill="#DCDCD1"/>
<path d="M115.885 203.823H88.1149L85.8008 180.682H118.199L115.885 203.823Z" fill="#DCDCD1"/>
<path d="M203.823 88.1151V115.885L180.682 118.199V85.8009L203.823 88.1151Z" fill="#DCDCD1"/>
<path fill-rule="evenodd" clip-rule="evenodd" d="M102 182.996C146.733 182.996 182.996 146.733 182.996 102C182.996 57.2675 146.733 21.0045 102 21.0045C57.2672 21.0045 21.0042 57.2675 21.0042 102C21.0042 146.733 57.2672 182.996 102 182.996ZM102 157.54C132.674 157.54 157.54 132.674 157.54 102C157.54 71.3264 132.674 46.4604 102 46.4604C71.3258 46.4604 46.4597 71.3264 46.4597 102C46.4597 132.674 71.3258 157.54 102 157.54Z" fill="#DCDCD1"/>
</svg>
